<?xml version="1.0" encoding="UTF-8"?>
<svg width="194px" height="48px" viewBox="0 0 194 48" version="1.1" xmlns="http://www.w3.org/2000/svg"
    xmlns:xlink="http://www.w3.org/1999/xlink">

    <g stroke="none" stroke-width="1" fill="none" fill-rule="evenodd">
        <g transform="translate(-0, 0)">
            <path
                d="M35.8434534,31.5075886 L56.2869603,45.1273233 L50.5792783,48 L32.6834625,33.5917989 L35.8434534,31.5075886 Z M43.4723774,16.5378047 L43.4723774,21.1228496 L6.02554328,47.9264228 L8.30493316,20.5372352 L11.5488069,22.3918993 L11.5488069,37.7042648 L43.4723774,16.5378047 Z M0,5.18079599 L18.5897026,19.1203791 L15.4246256,21.5838985 L5.20116263,14.8527679 L3.49154206,45.6464206 L0.569847469,42.7741181 L0,5.18079599 Z M54.0633373,2.35044994 L56.9850318,5.22435121 L57.5548793,42.5117701 L39.2015179,28.7228085 L42.1305598,26.4148089 L52.3540228,33.1462481 L54.0633373,2.35044994 Z M51.529336,0.0719784881 L49.2499462,27.4615402 L46.0063786,25.3221905 L46.0063786,10.2963532 L14.0828081,31.4625015 L14.0828081,26.8764701 L51.529336,0.0719784881 Z M6.9780501,0 L24.871723,14.4069085 L21.9474609,16.3359051 L1.5045663,2.71647657 L6.9780501,0 Z"
                fill="#373ED8"></path>
            <path
                d="M161.189588,19.6352243 L161.189094,28.9133648 C161.189008,31.1224519 159.398158,32.9132243 157.189071,32.9132243 L136.371744,32.9132243 L136.371744,19.6352243 L161.189588,19.6352243 Z M119.715144,22.3216243 L119.715212,24.4800715 L131.315944,24.4800243 L131.315944,27.5174243 L119.715212,27.5175911 L119.715212,29.875707 L131.953744,29.8756243 L131.953744,32.9132243 L104.174744,32.9132243 L104.174744,29.8756243 L116.677831,29.875707 L116.677831,27.5175911 L104.812744,27.5174243 L104.812744,24.4800243 L116.677831,24.4800715 L116.677744,22.3216243 L119.715144,22.3216243 Z M100.835544,3.97602427 L100.835544,7.01342427 L88.1556837,7.01362305 L88.1556837,8.7323137 L88.1548583,8.82057328 C88.1455384,9.33615385 88.053797,9.8404244 87.8849765,10.3182442 L87.8378734,10.4515622 L100.284544,10.4510243 L100.215163,28.9265334 C100.20689,31.1296684 98.4186616,32.9113365 96.215511,32.9115124 L72.9891441,32.9133663 L72.9891441,10.4510243 L83.3994734,10.4511426 L83.4619998,10.4500198 C84.3493746,10.4171174 85.0655361,9.71419598 85.1153779,8.83100973 L85.1181243,8.73513576 L85.1181641,7.01362305 L72.4381441,7.01342427 L72.4381441,3.97602427 L100.835544,3.97602427 Z M178.709029,12.8732243 L178.708578,28.815099 C178.708528,31.0242027 176.917682,32.8150086 174.708578,32.8150086 L171.845344,32.815099 L171.845344,29.7776243 L174.071509,29.7776405 C174.938492,29.777644 175.644421,29.0880793 175.670754,28.2274828 L175.671516,28.1776397 L175.671508,26.7022252 L168.407833,26.7022252 L168.407944,32.9130243 L165.370344,32.9130243 L165.370344,12.8732243 L178.709029,12.8732243 Z M183.289544,17.1898243 L183.289598,20.647618 L188.543326,20.6477394 L188.606012,20.6473067 C189.764218,20.6311287 190.255217,20.1601072 190.287702,19.0257194 L190.288144,19.0016243 L193.326144,19.0016243 L193.324727,19.0755596 C193.25199,21.8954916 191.404954,23.685259 188.543328,23.685259 L183.289598,23.6852134 L183.289634,29.0756793 C183.289636,29.5175053 183.647808,29.8756748 184.089634,29.8756748 L188.826564,29.8756793 L188.882913,29.8750622 C189.794768,29.8549141 190.289182,29.3419223 190.289182,28.413061 L190.289144,25.5590243 L193.326544,25.5590243 L193.326702,28.6691334 C193.326702,31.291635 191.705213,32.9131989 189.082636,32.9131989 L181.852114,32.9123883 C180.968521,32.912309 180.252267,32.1959983 180.252258,31.3124056 L180.251944,17.1898243 L183.289544,17.1898243 Z M90.2441561,26.4383257 L83.0296917,26.4383257 L83.0296917,29.8758453 L90.2441561,29.8758453 L90.2441561,26.4383257 Z M79.9923104,13.4885239 L76.0267644,13.4885239 L76.0267644,29.875707 L79.9923104,29.875707 L79.9923104,13.4885239 Z M97.2470834,13.4885239 L93.2816757,13.4885239 L93.2816757,29.875707 L95.645942,29.875707 C96.529554,29.875707 97.2458804,29.159319 97.245942,28.275707 L97.2470834,13.4885239 Z M158.152124,27.7929191 L139.409196,27.7929191 L139.409196,29.8757346 L156.552124,29.8757346 C157.435779,29.8757346 158.152124,29.1593902 158.152124,28.2757346 L158.152124,27.7929191 Z M158.152124,22.6728073 L139.409196,22.6728073 L139.409196,24.7554571 L158.152124,24.7554571 L158.152124,22.6728073 Z M175.671508,21.3064553 L168.407835,21.3064553 L168.407835,23.6647632 L175.671508,23.6647632 L175.671508,21.3064553 Z M90.2441561,19.9634248 L83.0296917,19.9634248 L83.0296917,23.4009444 L90.2441561,23.4009444 L90.2441561,19.9634248 Z M116.55896,3.97602427 L116.558757,8.1445676 C116.558757,10.3536271 114.76802,12.1444551 112.55896,12.1445676 L107.588344,12.1450243 L107.586744,9.10762427 L111.92078,9.10779946 C112.803534,9.10783515 113.519533,8.39292583 113.520842,7.51017255 L113.521579,7.01362305 L107.585789,7.01362305 L107.586744,8.91602427 L107.585573,12.3452453 L107.588344,12.3452243 L107.589333,13.6786958 L116.521744,13.6786243 L116.520979,18.2592102 C116.521013,20.4680228 114.730689,22.2587762 112.521876,22.2592717 L107.398457,22.2612566 L107.398544,22.2704243 L106.226344,22.2704243 L106.226582,18.8592572 L106.057282,19.0219814 L105.996214,19.0792764 C105.379679,19.6438394 104.58807,19.95635 103.668483,19.9742896 L103.446744,19.9746243 L103.446744,16.9322243 L103.475116,16.9293089 C104.027549,16.8596439 104.523121,16.353243 104.543514,15.8283629 L104.545505,15.7443967 L104.583544,3.97602427 L116.55896,3.97602427 Z M126.508944,2.89682427 L126.508993,5.05523058 L131.659344,5.05522427 L131.659344,8.09262427 L130.580406,8.09275015 L130.580406,9.50948914 L130.579581,9.59774872 C130.570254,10.113687 130.478534,10.6178092 130.309575,11.0953799 L130.262381,11.2287742 L132.198944,11.2280243 L132.198944,14.2656243 L126.508993,14.2656994 L126.508993,16.4615654 L131.659344,16.4614243 L131.659344,19.4990243 L126.508993,19.499085 L126.508944,22.2612243 L123.471344,22.2612243 L123.471473,19.499085 L118.320944,19.4990243 L118.320944,16.4614243 L123.471473,16.4615654 L123.471473,14.2656994 L117.781344,14.2656243 L117.781344,11.2280243 L119.718046,11.2287742 L119.670899,11.095404 C119.502068,10.617805 119.410344,10.1136658 119.400872,9.59684649 L119.400055,9.50855895 L119.400059,8.09275015 L118.320944,8.09262427 L118.320944,5.05522427 L123.471473,5.05523058 L123.471344,2.89682427 L126.508944,2.89682427 Z M113.581622,16.7160771 L109.249139,16.7160771 L109.249139,19.2238613 L111.978743,19.2238613 C112.860424,19.2238613 113.575947,18.5105969 113.578735,17.628921 L113.581622,16.7160771 Z M139.948544,2.89682427 L139.948652,5.05513427 L148.388744,5.05502427 L148.388744,8.09242427 L144.265191,8.09251523 L144.265191,10.3303012 L148.388744,10.3302243 L148.388744,13.3678243 L144.258021,13.368006 L144.25161,13.461137 L144.244779,13.5501806 C143.996746,16.4807892 141.517697,18.6316972 138.429975,18.6316972 L135.292544,18.6316972 L135.292544,15.5940243 L138.429975,15.5941776 C139.858996,15.5941776 140.991573,14.7559366 141.194928,13.4837109 L141.213435,13.3679273 L135.292544,13.3678243 L135.292544,10.3302243 L141.227861,10.3303019 L141.227861,8.09251259 L138.746125,8.09263478 L138.716817,8.12203995 L138.656828,8.18099889 C137.828719,8.9782547 136.663075,9.42571172 135.292544,9.44642427 L135.292544,6.40842427 L135.32059,6.40785776 C136.407539,6.37398372 136.911271,5.89920144 136.911271,4.95513378 L136.911144,2.89682427 L139.948544,2.89682427 Z M175.671509,15.9107637 L168.407953,15.9107637 L168.407829,18.2689933 L175.671509,18.2689933 L175.671509,15.9107637 Z M162.268854,5.05522427 L162.268289,13.8546462 C162.268191,16.0637162 160.477359,17.8544697 158.268289,17.8544697 L149.931744,17.8546462 L149.931744,5.05522427 L162.268854,5.05522427 Z M148.388744,14.7904243 L148.4002,17.8 L144.499544,17.8280243 L144.499544,14.7904243 L148.388744,14.7904243 Z M90.2441561,13.4885239 L83.0296917,13.4885239 L83.0296917,16.9260435 L90.2441561,16.9260435 L90.2441561,13.4885239 Z M183.289544,2.89682427 L183.289598,6.15500897 L188.543326,6.15513001 L188.606012,6.15469727 C189.764218,6.13851935 190.255217,5.66749777 190.287702,4.53311001 L190.288144,4.50882427 L193.326144,4.50882427 L193.324727,4.58295018 C193.25199,7.40288221 191.404954,9.19264959 188.543328,9.19264959 L183.289598,9.19260438 L183.289634,11.8092032 C183.289638,12.2510278 183.647809,12.6091949 184.089634,12.6091949 L188.826564,12.6092032 L188.884666,12.6086042 C189.805202,12.5894386 190.289182,12.1105049 190.289182,11.191644 L190.289144,10.7794243 L193.326544,10.7794243 L193.326702,11.4026573 C193.326702,14.0251589 191.705213,15.6467228 189.082636,15.6467228 L181.852114,15.6459082 C180.968523,15.6458289 180.25227,14.9295207 180.252258,14.0459296 L180.251944,2.89682427 L183.289544,2.89682427 Z M159.231403,8.09269484 L152.969354,8.09269484 L152.969354,14.8170713 L157.631403,14.8170713 C158.515059,14.8170713 159.231403,14.1007269 159.231403,13.2170713 L159.231403,8.09269484 Z M172.867344,2.89682427 L172.866279,2.96192625 C172.833614,4.42857909 172.35213,5.38474182 170.998176,6.61309523 L169.280765,8.2925982 L175.671629,8.29259415 L175.668944,6.14322427 L178.708944,6.14322427 L178.708944,11.3300243 L165.370344,11.3300243 L165.370344,7.44242427 L168.636036,4.20261792 L168.683093,4.16478269 C169.053637,3.85623069 169.281442,3.4081702 169.314296,2.91972072 L169.315344,2.89682427 L172.867344,2.89682427 Z M127.542887,8.09275015 L122.437717,8.09275015 L122.437717,9.50948914 C122.437717,10.4327438 123.105188,11.1928526 123.950044,11.226992 L124.007134,11.2281798 L125.971336,11.2281798 L126.028526,11.2270535 C126.842196,11.1941666 127.495004,10.4892711 127.540366,9.60755035 L127.542887,9.51205866 L127.542887,8.09275015 Z M72.999652,47.7795255 L74.2616071,47.7795255 L74.2616071,42.1978859 L74.9487717,42.1978859 L73.558972,40.1469326 L76.5351834,47.7795255 L77.4912976,47.7795255 L80.4711642,40.1469326 L79.0776243,42.1978859 L79.7647889,42.1978859 L79.7647889,47.7795255 L81.026744,47.7795255 L81.026744,39.9293248 L79.4195066,39.9293248 L77.0610122,45.9711708 L76.9688689,45.9711708 L74.6069745,39.9293248 L72.999652,39.9293248 L72.999652,47.7795255 Z M92.7361163,47.9748625 C93.5004636,47.9748625 94.1602572,47.8067831 94.7154971,47.4706244 C95.270737,47.1344658 95.6982597,46.6584487 95.9980655,46.0425734 C96.2871638,45.4486936 96.4368755,44.7501124 96.4472004,43.9468297 L96.447774,43.8462648 C96.447774,43.0038847 96.2972478,42.2747428 95.9961954,41.6588391 C95.695143,41.0429354 95.2669968,40.5681509 94.711757,40.2344857 C94.1565171,39.9008204 93.4979702,39.7339878 92.7361163,39.7339878 C91.9778892,39.7339878 91.3208724,39.9008204 90.7650658,40.2344857 C90.2092593,40.5681509 89.7799231,41.0423121 89.4770573,41.6569691 C89.1850081,42.249674 89.0337683,42.949412 89.023338,43.7561831 L89.0227585,43.8571452 C89.0227585,44.698222 89.1726614,45.4273214 89.4724671,46.0444434 C89.7722728,46.6615655 90.1994698,47.1375825 90.7540579,47.4724945 C91.3086461,47.8074065 91.9693322,47.9748625 92.7361163,47.9748625 Z M92.7361163,46.7616991 C92.2644628,46.7616991 91.8578507,46.641944 91.5162802,46.4024337 C91.1747096,46.1629235 90.9117669,45.8252914 90.727452,45.3895375 C90.551914,44.9745338 90.4599655,44.4914634 90.4516065,43.9403263 L90.4509796,43.8462648 C90.4509796,43.255437 90.5450071,42.7430529 90.7330622,42.3091124 C90.9211172,41.8751719 91.1859159,41.5396932 91.5274581,41.3026764 C91.8690003,41.0656596 92.2718864,40.9471512 92.7361163,40.9471512 C93.2028397,40.9471512 93.6069866,41.0656596 93.9485572,41.3026764 C94.2901277,41.5396932 94.5540197,41.8751719 94.740233,42.3091124 C94.9179821,42.7233283 95.0108964,43.2090187 95.0189759,43.7661836 L95.019553,43.8571452 C95.019553,44.4429862 94.9264463,44.9537836 94.740233,45.3895375 C94.5540197,45.8252914 94.2901277,46.1629235 93.9485572,46.4024337 C93.6069866,46.641944 93.2028397,46.7616991 92.7361163,46.7616991 Z M104.443778,47.7795255 L107.386498,47.7795255 C108.169716,47.7795255 108.8358,47.6247633 109.38475,47.3152389 C109.933699,47.0057145 110.353062,46.5560767 110.642837,45.9663257 C110.922263,45.3976371 111.066966,44.713972 111.076946,43.9153302 L111.0775,43.8152387 C111.0775,42.9942794 110.932046,42.2941377 110.641137,41.7148136 C110.350228,41.1354896 109.929662,40.6930771 109.379437,40.3875762 C108.829212,40.0820752 108.164899,39.9293248 107.386498,39.9293248 L104.443778,39.9293248 L104.443778,47.7795255 Z M105.843353,46.5984933 L105.843353,41.110357 L107.198896,41.110357 C107.712541,41.110357 108.152262,41.2174608 108.518059,41.4316685 C108.883855,41.6458762 109.163841,41.9564348 109.358016,42.3633443 C109.543749,42.7525621 109.640653,43.2187614 109.648728,43.7619422 L109.649279,43.8473699 C109.649279,44.4326441 109.553679,44.9307195 109.362479,45.3415958 C109.171279,45.7524722 108.893064,46.0646742 108.527834,46.2782018 C108.162604,46.4917294 107.719625,46.5984933 107.198896,46.5984933 L105.843353,46.5984933 Z M119.073451,47.7795255 L124.150597,47.7795255 L124.150597,46.5984933 L120.473026,46.5984933 L120.473026,44.353223 L123.94931,44.353223 L123.94931,43.234668 L120.473026,43.234668 L120.473026,41.110357 L124.150597,41.110357 L124.150597,39.9293248 L119.073451,39.9293248 L119.073451,47.7795255 Z M132.28305,47.7795255 L137.282929,47.7795255 L137.282929,46.5984933 L133.682625,46.5984933 L133.682625,39.9293248 L132.28305,39.9293248 L132.28305,47.7795255 Z M145.887556,47.7795255 L148.543391,47.7795255 C149.103107,47.7795255 149.583488,47.6895639 149.984532,47.5096408 C150.385576,47.3297177 150.694775,47.0733486 150.912128,46.7405333 C151.119601,46.4228461 151.228053,46.0485937 151.237483,45.6177761 L151.238157,45.5449656 C151.238157,45.2061435 151.162788,44.9010676 151.012049,44.6297379 C150.86131,44.3584082 150.652514,44.1377969 150.385661,43.9679042 C150.118809,43.7980114 149.809284,43.6970562 149.457088,43.6650384 L149.457088,43.57111 C149.721334,43.5273618 149.958153,43.4250464 150.167544,43.264164 C150.376934,43.1032816 150.543824,42.9034395 150.668212,42.6646376 C150.784307,42.4417558 150.846224,42.2029046 150.853964,41.9480839 L150.854793,41.8823546 C150.854793,41.4810836 150.759108,41.1344695 150.567738,40.8425124 C150.376368,40.5505553 150.102615,40.3253681 149.746481,40.1669508 C149.390347,40.0085334 148.962484,39.9293248 148.462893,39.9293248 L145.887556,39.9293248 L145.887556,41.0199988 L148.121775,41.0199988 C148.546904,41.0199988 148.877637,41.1170722 149.113973,41.3112192 C149.340463,41.4972767 149.458426,41.754167 149.467863,42.0818901 L149.468479,42.1359187 C149.468479,42.4919681 149.338962,42.7645445 149.07993,42.9536479 C148.820897,43.1427513 148.441642,43.2373031 147.942164,43.2373031 L145.887556,43.2373031 L145.887556,44.2321786 L148.164532,44.2321786 C148.523018,44.2321786 148.824141,44.2777828 149.067902,44.368991 C149.311662,44.4601993 149.495651,44.5958641 149.619869,44.7759856 C149.736323,44.9448494 149.798189,45.1512051 149.805468,45.3950526 L149.806196,45.4552024 C149.806196,45.8555667 149.671678,46.161266 149.402644,46.3723002 C149.133609,46.5833344 148.740258,46.6888515 148.222589,46.6888515 L145.887556,46.6888515 L145.887556,47.7795255 Z M145.187726,47.7795255 L146.587301,47.7795255 L146.587301,39.9293248 L145.187726,39.9293248 L145.187726,47.7795255 Z M159.153417,47.7795255 L164.230564,47.7795255 L164.230564,46.5984933 L160.552992,46.5984933 L160.552992,44.353223 L164.029277,44.353223 L164.029277,43.234668 L160.552992,43.234668 L160.552992,41.110357 L164.230564,41.110357 L164.230564,39.9293248 L159.153417,39.9293248 L159.153417,47.7795255 Z M175.084388,47.9748625 C175.711938,47.9748625 176.255376,47.8735389 176.714704,47.6708916 C177.174032,47.4682444 177.528268,47.1814441 177.777412,46.8104908 C178.016175,46.454994 178.140531,46.0365751 178.150479,45.5552341 L178.151128,45.4866535 C178.151128,44.8921989 177.966898,44.4201062 177.598438,44.0703754 C177.241493,43.7315736 176.669053,43.4755633 175.881119,43.3023445 L174.959604,43.1054633 C174.47129,43.003233 174.119689,42.8620571 173.904801,42.6819357 C173.700146,42.5103915 173.592946,42.295761 173.583201,42.0380444 L173.58247,41.9936236 C173.58247,41.7673455 173.646619,41.5739352 173.774917,41.4133928 C173.903214,41.2528504 174.079256,41.1289868 174.30304,41.0418021 C174.526825,40.9546173 174.783563,40.9110249 175.073253,40.9110249 C175.372804,40.9085315 175.635166,40.9524072 175.860339,41.0426521 C176.085512,41.132897 176.265931,41.2557264 176.401596,41.4111403 C176.53726,41.5665542 176.621527,41.7465198 176.654395,41.9510371 L176.665275,42.0183595 L178.004498,42.0183595 L177.999058,41.9473819 C177.967947,41.5258235 177.831021,41.1483817 177.58828,40.8150564 C177.34554,40.4817312 177.011974,40.2182218 176.587582,40.0245282 C176.16319,39.8308346 175.661729,39.7339878 175.083198,39.7339878 C174.517531,39.7339878 174.016155,39.832308 173.57907,40.0289483 C173.141984,40.2255887 172.799308,40.499936 172.551043,40.8519903 C172.313571,41.1887378 172.188533,41.5782278 172.175926,42.0204604 L172.174904,42.0865319 C172.174904,42.6731662 172.357831,43.1539009 172.723684,43.528736 C173.089537,43.9035711 173.674585,44.1757366 174.478827,44.3452327 L175.323417,44.521869 C175.830488,44.6289162 176.193947,44.772713 176.413793,44.9532594 C176.623647,45.1255992 176.733343,45.344513 176.742881,45.6100006 L176.743563,45.6536845 C176.743563,45.8770725 176.674682,46.0751012 176.53692,46.2477707 C176.399159,46.4204402 176.209361,46.5552834 175.967527,46.6523002 C175.725694,46.749317 175.446586,46.7978254 175.130205,46.7978254 C174.79892,46.7978254 174.504441,46.7521363 174.246768,46.660758 C173.989096,46.5693797 173.784083,46.4419743 173.631729,46.2785418 C173.479375,46.1151093 173.391638,45.9235125 173.368517,45.7037513 L173.363077,45.6490943 L171.999713,45.6490943 L172.005153,45.724407 C172.040458,46.1740164 172.186918,46.5675238 172.444534,46.9049292 C172.70215,47.2423346 173.054941,47.5050082 173.502907,47.6929499 C173.950873,47.8808916 174.478033,47.9748625 175.084388,47.9748625 Z M188.071683,47.7795255 L189.471258,47.7795255 L189.471258,41.110357 L191.8907,41.110357 L191.8907,39.9293248 L185.652242,39.9293248 L185.652242,41.110357 L188.071683,41.110357 L188.071683,47.7795255 Z"
                fill="#090A0C"></path>
        </g>
    </g>
</svg>
